REM DIRINDEX 1\2,1\3,1\4,1\6,1\5\7,1\5\8
REM DIRNAME folder01,folder02,folder03,folder04,folder05,folder06,folder07,folder08
TITLE ""
FILE "DB4500_5th_6C_29.mp3" MP3
  TRACK 01 AUDIO
    TITLE "0:"
    INDEX 01 00:00:00
  TRACK 02 AUDIO
    TITLE "2:cjc114_4246"
    INDEX 01 00:00:07
  TRACK 03 AUDIO
    TITLE "0:"
    INDEX 01 00:01:17
  TRACK 04 AUDIO
    TITLE "3:cjc114_4247"
    INDEX 01 00:01:30
  TRACK 05 AUDIO
    TITLE "0:"
    INDEX 01 00:02:40
  TRACK 06 AUDIO
    TITLE "4:cjc114_4248"
    INDEX 01 00:02:53
  TRACK 07 AUDIO
    TITLE "0:"
    INDEX 01 00:06:04
  TRACK 08 AUDIO
    TITLE "2:cjc114_4249"
    INDEX 01 00:06:41
  TRACK 09 AUDIO
    TITLE "0:"
    INDEX 01 00:09:20
  TRACK 10 AUDIO
    TITLE "3:cjc114_4250"
    INDEX 01 00:09:34
  TRACK 11 AUDIO
    TITLE "0:"
    INDEX 01 00:10:49
  TRACK 12 AUDIO
    TITLE "4:cjc114_4251"
    INDEX 01 00:10:63
  TRACK 13 AUDIO
    TITLE "0:"
    INDEX 01 00:14:23
  TRACK 14 AUDIO
    TITLE "2:cjc114_4252"
    INDEX 01 00:14:60
  TRACK 15 AUDIO
    TITLE "0:"
    INDEX 01 00:15:56
  TRACK 16 AUDIO
    TITLE "3:cjc114_4253"
    INDEX 01 00:16:04
  TRACK 17 AUDIO
    TITLE "0:"
    INDEX 01 00:17:14
  TRACK 18 AUDIO
    TITLE "4:cjc114_4254"
    INDEX 01 00:17:27
  TRACK 19 AUDIO
    TITLE "0:"
    INDEX 01 00:20:06
  TRACK 20 AUDIO
    TITLE "2:cjc114_4255"
    INDEX 01 00:20:43
  TRACK 21 AUDIO
    TITLE "0:"
    INDEX 01 00:21:57
  TRACK 22 AUDIO
    TITLE "3:cjc114_4256"
    INDEX 01 00:21:70
  TRACK 23 AUDIO
    TITLE "0:"
    INDEX 01 00:23:08
  TRACK 24 AUDIO
    TITLE "4:cjc114_4257"
    INDEX 01 00:23:20
  TRACK 25 AUDIO
    TITLE "0:"
    INDEX 01 00:26:42
  TRACK 26 AUDIO
    TITLE "2:cjc114_4258"
    INDEX 01 00:27:04
  TRACK 27 AUDIO
    TITLE "0:"
    INDEX 01 00:28:23
  TRACK 28 AUDIO
    TITLE "3:cjc114_4259"
    INDEX 01 00:28:37
  TRACK 29 AUDIO
    TITLE "0:"
    INDEX 01 00:29:52
  TRACK 30 AUDIO
    TITLE "4:cjc114_4260"
    INDEX 01 00:29:66
  TRACK 31 AUDIO
    TITLE "0:"
    INDEX 01 00:33:48
  TRACK 32 AUDIO
    TITLE "2:cjc114_4261"
    INDEX 01 00:34:10
  TRACK 33 AUDIO
    TITLE "0:"
    INDEX 01 00:35:15
  TRACK 34 AUDIO
    TITLE "3:cjc114_4262"
    INDEX 01 00:35:29
  TRACK 35 AUDIO
    TITLE "0:"
    INDEX 01 00:36:40
  TRACK 36 AUDIO
    TITLE "4:cjc114_4263"
    INDEX 01 00:36:54
  TRACK 37 AUDIO
    TITLE "0:"
    INDEX 01 00:40:28
  TRACK 38 AUDIO
    TITLE "2:cjc114_4264"
    INDEX 01 00:40:66
  TRACK 39 AUDIO
    TITLE "0:"
    INDEX 01 00:41:61
  TRACK 40 AUDIO
    TITLE "3:cjc114_4265"
    INDEX 01 00:42:02
  TRACK 41 AUDIO
    TITLE "0:"
    INDEX 01 00:43:40
  TRACK 42 AUDIO
    TITLE "4:cjc114_4266"
    INDEX 01 00:43:54
  TRACK 43 AUDIO
    TITLE "0:"
    INDEX 01 00:47:17
  TRACK 44 AUDIO
    TITLE "2:cjc114_4267"
    INDEX 01 00:47:56
  TRACK 45 AUDIO
    TITLE "0:"
    INDEX 01 00:48:61
  TRACK 46 AUDIO
    TITLE "3:cjc114_4268"
    INDEX 01 00:49:00
  TRACK 47 AUDIO
    TITLE "0:"
    INDEX 01 00:50:07
  TRACK 48 AUDIO
    TITLE "4:cjc114_4269"
    INDEX 01 00:50:19
  TRACK 49 AUDIO
    TITLE "0:"
    INDEX 01 00:53:39
  TRACK 50 AUDIO
    TITLE "2:cjc114_4270"
    INDEX 01 00:54:01
  TRACK 51 AUDIO
    TITLE "0:"
    INDEX 01 00:55:06
  TRACK 52 AUDIO
    TITLE "3:cjc114_4271"
    INDEX 01 00:55:18
  TRACK 53 AUDIO
    TITLE "0:"
    INDEX 01 00:56:24
  TRACK 54 AUDIO
    TITLE "4:cjc114_4272"
    INDEX 01 00:56:33
  TRACK 55 AUDIO
    TITLE "0:"
    INDEX 01 00:59:69
  TRACK 56 AUDIO
    TITLE "2:cjc114_4273"
    INDEX 01 01:00:29
  TRACK 57 AUDIO
    TITLE "0:"
    INDEX 01 01:01:36
  TRACK 58 AUDIO
    TITLE "3:cjc114_4274"
    INDEX 01 01:01:48
  TRACK 59 AUDIO
    TITLE "0:"
    INDEX 01 01:03:06
  TRACK 60 AUDIO
    TITLE "4:cjc114_4275"
    INDEX 01 01:03:18
  TRACK 61 AUDIO
    TITLE "0:"
    INDEX 01 01:06:43
  TRACK 62 AUDIO
    TITLE "2:cjc114_4276"
    INDEX 01 01:07:04
  TRACK 63 AUDIO
    TITLE "0:"
    INDEX 01 01:08:07
  TRACK 64 AUDIO
    TITLE "3:cjc114_4277"
    INDEX 01 01:08:23
  TRACK 65 AUDIO
    TITLE "0:"
    INDEX 01 01:09:22
  TRACK 66 AUDIO
    TITLE "4:cjc114_4278"
    INDEX 01 01:09:36
  TRACK 67 AUDIO
    TITLE "0:"
    INDEX 01 01:13:10
  TRACK 68 AUDIO
    TITLE "2:cjc114_4279"
    INDEX 01 01:13:44
  TRACK 69 AUDIO
    TITLE "0:"
    INDEX 01 01:14:65
  TRACK 70 AUDIO
    TITLE "3:cjc114_4280"
    INDEX 01 01:15:03
  TRACK 71 AUDIO
    TITLE "0:"
    INDEX 01 01:16:50
  TRACK 72 AUDIO
    TITLE "4:cjc114_4281"
    INDEX 01 01:16:60
  TRACK 73 AUDIO
    TITLE "0:"
    INDEX 01 01:19:70
